<?xml version="1.0" encoding="UTF-8"?><svg id="Layer_2" xmlns="http://www.w3.org/2000/svg" viewBox="0 0 163.15 162.98"><defs><style>.cls-1{fill:#3d8bca;}.cls-2{fill:#231f20;}</style></defs><g id="Layer_1-2"><circle class="cls-1" cx="81.58" cy="60.29" r="19.92"/><path class="cls-1" d="M111.29,125.3v-22.85c0-10.74-8.71-19.45-19.45-19.45h-20.54c-10.74,0-19.45,8.71-19.45,19.45v22.85c8.48,5.77,18.71,9.15,29.72,9.15s21.24-3.38,29.72-9.15Z"/><path class="cls-1" d="M119.17,25.54l8.51-11.34C115.48,5.81,100.88.67,85.11,0v14.23c12.55.66,24.23,4.68,34.06,11.3Z"/><path class="cls-1" d="M78.04,14.23V0c-15.76.67-30.36,5.81-42.57,14.2l8.51,11.34c9.83-6.62,21.5-10.65,34.06-11.3Z"/><path class="cls-1" d="M144.46,57.34l13.54-4.4c-5.08-13.58-13.66-25.45-24.66-34.5l-8.53,11.36c8.71,7.3,15.5,16.76,19.65,27.53Z"/><path class="cls-1" d="M149.01,81.49c0,6.03-.87,11.86-2.37,17.43l13.53,4.4c1.93-6.95,2.98-14.26,2.98-21.82s-1.05-14.87-2.98-21.82l-13.53,4.4c1.49,5.57,2.37,11.39,2.37,17.42Z"/><path class="cls-1" d="M38.34,29.8l-8.53-11.36c-11,9.04-19.59,20.91-24.66,34.5l13.54,4.4c4.15-10.78,10.95-20.24,19.65-27.54Z"/><path class="cls-1" d="M18.69,105.64l-13.54,4.4c5.08,13.58,13.66,25.45,24.66,34.5l8.53-11.36c-8.71-7.3-15.5-16.76-19.65-27.53Z"/><path class="cls-1" d="M43.99,137.44l-8.51,11.34c12.21,8.38,26.81,13.52,42.57,14.2v-14.23c-12.55-.66-24.23-4.68-34.06-11.3Z"/><path class="cls-1" d="M85.11,148.74v14.23c15.76-.67,30.36-5.81,42.57-14.2l-8.51-11.34c-9.83,6.62-21.5,10.65-34.06,11.3Z"/><path class="cls-1" d="M14.14,81.49c0-6.03.87-11.85,2.36-17.42l-13.53-4.4c-1.93,6.95-2.98,14.26-2.98,21.82s1.05,14.87,2.98,21.82l13.53-4.4c-1.49-5.57-2.37-11.39-2.37-17.42Z"/><path class="cls-1" d="M124.81,133.17l8.53,11.36c11-9.04,19.59-20.91,24.66-34.5l-13.54-4.4c-4.15,10.77-10.95,20.24-19.65,27.53Z"/><path class="cls-2" d="M81.58,143.71c-34.31,0-62.22-27.91-62.22-62.22s27.91-62.22,62.22-62.22,62.22,27.91,62.22,62.22-27.91,62.22-62.22,62.22ZM81.58,23.1c-32.19,0-58.38,26.19-58.38,58.38s26.19,58.38,58.38,58.38,58.38-26.19,58.38-58.38-26.19-58.38-58.38-58.38Z"/></g></svg>